# xmcd CD database file
#
# Track frame offsets:
#	150
#	38248
#	63162
#	84783
#	102845
#	126310
#	150423
#	180452
#
# Disc length: 2800 seconds
#
# Revision: 0
# Processed by: cddbd v1.5.1PL0 Copyright (c) Steve Scherf et al.
# Submitted via: CDex 1.51
#
DISCID=550aee08
DTITLE=Mike Bogle - Other Life
DYEAR=1994
DGENRE=Jazz
TTITLE0=Other Life
TTITLE1=New Dreams
TTITLE2=One For Bruce
TTITLE3=Giants Steps
TTITLE4=Soul Eyes
TTITLE5=Banana Tree
TTITLE6=Up Jumped Freddie
TTITLE7=Higher Authority
EXTD=YEAR: 1994
EXTT0=
EXTT1=
EXTT2=
EXTT3=
EXTT4=
EXTT5=
EXTT6=
EXTT7=
PLAYORDER=
